<?xml version="1.0" encoding="UTF-8" standalone="no"?>
<!-- Created with Inkscape (http://www.inkscape.org/) -->

<svg
   xmlns:dc="http://purl.org/dc/elements/1.1/"
   xmlns:cc="http://creativecommons.org/ns#"
   xmlns:rdf="http://www.w3.org/1999/02/22-rdf-syntax-ns#"
   xmlns:svg="http://www.w3.org/2000/svg"
   xmlns="http://www.w3.org/2000/svg"
   xmlns:sodipodi="http://sodipodi.sourceforge.net/DTD/sodipodi-0.dtd"
   xmlns:inkscape="http://www.inkscape.org/namespaces/inkscape"
   id="svg2"
   sodipodi:docname="twin-racers-performance-by-example-small.svg"
   viewBox="0 0 175.74723 55.772848"
   version="1.1"
   inkscape:version="0.91 r13725"
   width="175.74724"
   height="55.77285"
   inkscape:export-filename="/home/psteinb/current/aspects_of_performant_cpp/img/twin-racers-performance-by-example-small.png"
   inkscape:export-xdpi="90"
   inkscape:export-ydpi="90">
  <title
     id="title4355">Performance by Example</title>
  <defs
     id="defs23" />
  <sodipodi:namedview
     id="base"
     bordercolor="#666666"
     inkscape:pageshadow="2"
     inkscape:window-y="238"
     pagecolor="#ffffff"
     inkscape:window-height="1078"
     inkscape:window-maximized="1"
     inkscape:zoom="2.3509926"
     inkscape:window-x="1920"
     showgrid="false"
     borderopacity="1.0"
     inkscape:current-layer="capa1"
     inkscape:cx="54.467341"
     inkscape:cy="5.4473321"
     showguides="true"
     inkscape:guide-bbox="true"
     inkscape:window-width="1899"
     inkscape:pageopacity="0.0"
     inkscape:document-units="px"
     fit-margin-top="0"
     fit-margin-left="0"
     fit-margin-right="0"
     fit-margin-bottom="0">
    <sodipodi:guide
       id="guide3282"
       position="-970.31362,-655.11453"
       orientation="0,1" />
  </sodipodi:namedview>
  <g
     id="capa1"
     inkscape:label="Capa 1"
     inkscape:groupmode="layer"
     transform="translate(-970.27334,-340.42916)">
    <g
       id="g4253"
       transform="matrix(0.512,0,0,0.512,516.37571,179.738)">
      <g
         transform="matrix(0.144,0,0,0.144,885.11226,292.54557)"
         id="g4214">
        <g
           transform="matrix(1.0976,0,0,1.0976,1180,-1.5513)"
           id="g3035">
          <path
             inkscape:connector-curvature="0"
             style="fill:#ffffff"
             d="m -641.82,136.28 c -79.536,2.4915 -145.21,68.735 -139.08,148.07 l 6.3799,82.483 c 0.4244,5.487 4.7536,20.281 5.5173,25.599 0,0 39.281,13.954 135.55,10.938 96.265,-3.0156 134.6,-19.4 134.6,-19.4 0.42928,-5.355 3.7945,-20.39 3.8746,-25.893 l 1.2048,-82.72 c 1.1588,-79.566 -68.507,-141.57 -148.04,-139.08 z"
             sodipodi:nodetypes="ssscscsss"
             id="path3019" />
          <path
             d="m -638.09,136.22 c -1.2377,0.008 -2.476,0.0236 -3.7188,0.0625 -79.536,2.4915 -145.23,68.725 -139.09,148.06 l 6.4062,82.5 c 0.42441,5.487 4.7364,20.276 5.5,25.594 0,0 39.297,13.953 135.56,10.938 96.265,-3.0156 134.59,-19.406 134.59,-19.406 0.42932,-5.355 3.7949,-20.403 3.875,-25.906 l 1.1875,-82.719 c 1.1407,-78.323 -66.338,-139.6 -144.31,-139.12 z m 0.6875,61.062 c 25.786,-0.20756 46.594,8.9472 46.969,20.906 0.38671,12.345 -21.128,23 -48.062,23.844 -26.934,0.84374 -49.113,-8.4364 -49.5,-20.781 -0.38671,-12.345 21.16,-23.063 48.094,-23.906 0.84169,-0.0264 1.6682,-0.0558 2.5,-0.0625 z m -0.25,3.125 c -0.71669,0.006 -1.431,0.009 -2.1562,0.0312 -23.206,0.72696 -41.771,9.9575 -41.438,20.594 0.33319,10.636 19.45,18.664 42.656,17.938 23.206,-0.72696 41.739,-9.9575 41.406,-20.594 -0.32278,-10.304 -18.251,-18.148 -40.469,-17.969 z m 1.4062,5.0312 c 16.821,0.20483 30.113,5.8512 30.344,13.219 0.24618,7.8587 -14.444,14.705 -32.844,15.281 -18.399,0.57638 -33.535,-5.3288 -33.781,-13.188 -0.24618,-7.8587 14.476,-14.705 32.875,-15.281 1.15,-0.036 2.2849,-0.0449 3.4062,-0.0312 z m 118.15,54.57 c 0,0 -5.1161,32.736 -8.3438,48.938 -2.5445,12.772 3.5687,25.647 -8.6875,38.031 -24.541,24.797 -65.783,29.267 -99.156,30.312 -33.374,1.0455 -74.83,-0.85021 -100.88,-24.062 -13.007,-11.593 -7.6923,-24.818 -11.031,-37.406 -4.2354,-15.968 -11.406,-48.312 -11.406,-48.312 0,0 79.994,2.97 119.94,1.7188 39.95,-1.25 119.57,-9.22 119.57,-9.22 z m -174.34,26 c 0,0 -10.841,24.725 -14.406,23.625 -3.5656,-1.0998 -13.094,-17.781 -13.094,-17.781 l -0.0625,16.438 -21.125,-9.2188 9.9688,16.812 -10.625,10.094 c 0,0 14.653,-5.8519 22.375,-6.0938 7.7216,-0.24188 22.719,4.6562 22.719,4.6562 -0.25738,1.081 -0.41146,2.211 -0.375,3.375 0.22159,7.0737 6.1138,12.628 13.188,12.406 7.0737,-0.22159 12.659,-6.1451 12.438,-13.219 -0.0365,-1.164 -0.26923,-2.2498 -0.59375,-3.3125 0,0 6.912,-0.67231 10.344,-0.34375 3.5451,0.33943 10.438,2.3438 10.438,2.3438 0,0 -6.129,-9.7342 -11.125,-11.781 -1.7856,-0.7316 12.399,-13.24 10.781,-13.188 -1.6177,0.0522 -19.013,12.684 -20.75,13.062 -1.7366,0.37804 2.875,-20.656 2.875,-20.656 0,0 -13.509,18.032 -16.344,17.688 -2.85,-0.34 -6.64,-24.9 -6.64,-24.9 z m 109.81,0 c 0,0 -3.79,24.562 -6.625,24.906 -2.835,0.34408 -16.312,-17.688 -16.312,-17.688 0,0 4.6116,21.034 2.875,20.656 -1.7366,-0.37805 -19.164,-13.01 -20.781,-13.062 -1.6177,-0.0522 12.567,12.456 10.781,13.188 -4.996,2.047 -11.094,11.781 -11.094,11.781 0,0 6.8611,-2.0043 10.406,-2.3438 3.4318,-0.32856 10.344,0.34375 10.344,0.34375 -0.32452,1.0628 -0.55725,2.1485 -0.59375,3.3125 -0.22158,7.0737 5.3638,12.997 12.438,13.219 7.0737,0.22159 12.997,-5.3326 13.219,-12.406 0.0365,-1.164 -0.11762,-2.294 -0.375,-3.375 0,0 14.997,-4.8981 22.719,-4.6562 7.7217,0.24189 22.375,6.0938 22.375,6.0938 l -10.656,-10.094 9.9688,-16.812 -21.094,9.2188 -0.0937,-16.438 c 0,0 -9.5282,16.681 -13.094,17.781 -3.57,1.1 -14.41,-23.62 -14.41,-23.62 z"
             inkscape:connector-curvature="0"
             style="fill:#2b3990;fill-opacity:1"
             id="path3021" />
        </g>
        <g
           transform="matrix(0.96485,0.3912,-0.3912,0.96485,363.39,-39.345)"
           id="g3067">
          <path
             inkscape:connector-curvature="0"
             style="fill:#ffffff"
             d="m 372.06,225.22 c -83.891,0 -155.28,67.634 -151.44,151.44 l 4,87.125 c 0.26609,5.7959 4.3396,21.528 4.9688,27.156 0,0 40.931,16 142.47,16 101.539,0 142.47,-16 142.47,-16 0.6291,-5.6286 4.6714,-21.36 4.9375,-27.156 l 4,-87.125 c 3.8475,-83.803 -67.515,-151.44 -151.41,-151.44 z"
             sodipodi:nodetypes="ssscscsss"
             id="path3031" />
          <path
             d="m 372.06,225.22 c -83.891,0 -155.28,67.634 -151.44,151.44 l 4,87.125 c 0.26609,5.7959 4.3396,21.528 4.9688,27.156 0,0 40.931,16 142.47,16 101.539,0 142.47,-16 142.47,-16 0.62915,-5.6286 4.6714,-21.36 4.9375,-27.156 l 4,-87.125 c 3.8475,-83.803 -67.515,-151.44 -151.41,-151.44 z m 0,64.406 c 28.409,0 51.438,10.573 51.438,23.594 0,13.021 -23.028,23.562 -51.438,23.562 -28.409,0 -51.469,-10.542 -51.469,-23.562 0,-13.021 23.06,-23.594 51.469,-23.594 z m 0,3.2812 c -24.477,0 -44.344,9.0937 -44.344,20.312 0,11.219 19.866,20.312 44.344,20.312 24.477,0 44.312,-9.0937 44.312,-20.312 0,-11.219 -19.835,-20.312 -44.312,-20.312 z m 0,5.2812 c 19.407,0 35.125,6.7421 35.125,15.031 0,8.2891 -15.718,15 -35.125,15 -19.407,0 -35.156,-6.7109 -35.156,-15 0,-8.2891 15.749,-15.031 35.156,-15.031 z m -126.31,61.5 c 0,0 84.181,5.75 126.31,5.75 42.131,0 126.28,-5.75 126.28,-5.75 0,0 -6.4704,34.316 -10.406,51.281 -3.1029,13.375 2.9173,27.136 -10.406,39.781 -26.678,25.319 -70.268,28.688 -105.47,28.688 -35.201,0 -78.822,-3.3683 -105.5,-28.688 -13.324,-12.645 -7.3034,-26.407 -10.406,-39.781 -3.92,-16.97 -10.39,-51.28 -10.39,-51.28 z m 43.562,34.75 -23.969,20.938 c 0,0 15.637,-5.6562 23.781,-5.6562 8.1445,0 23.781,5.6562 23.781,5.6562 -0.30689,1.1306 -0.5,2.3035 -0.5,3.5312 0,7.4611 6.0389,13.5 13.5,13.5 7.4611,0 13.531,-6.0389 13.531,-13.5 0,-1.2277 -0.19312,-2.4007 -0.5,-3.5312 0,0 7.3009,-0.4595 10.906,0 3.7244,0.47468 10.906,2.8125 10.906,2.8125 0,0 -6.1156,-10.459 -11.312,-12.781 -7.4295,-3.3194 -12.502,1.9809 -24.406,0.15625 -11.904,-1.82465 -35.719,-11.125 -35.719,-11.125 z m 165.47,0 c 0,0 -23.815,9.3004 -35.719,11.125 -11.904,1.8246 -16.977,-3.4757 -24.406,-0.15625 -5.1969,2.3219 -11.312,12.781 -11.312,12.781 0,0 7.1819,-2.3378 10.906,-2.8125 3.6053,-0.4595 10.906,0 10.906,0 -0.30688,1.1306 -0.5,2.3035 -0.5,3.5312 0,7.4611 6.0702,13.5 13.531,13.5 7.4611,0 13.5,-6.0389 13.5,-13.5 0,-1.2277 -0.19311,-2.4007 -0.5,-3.5312 0,0 15.637,-5.6562 23.781,-5.6562 8.1445,0 23.781,5.6562 23.781,5.6562 l -23.969,-20.938 z"
             inkscape:connector-curvature="0"
             style="fill:#2b3990;fill-opacity:1"
             id="rect2985" />
        </g>
        <path
           d="m 520.72,423.01 c -0.70866,-0.76824 -1.4194,-1.5063 -2.1315,-2.2453 -62.062,-64.4 -125.26,-42.616 -195.01,10.924 l -88.641,-48.187 c -22.411,-12.185 -34.305,-14.738 -41.581,-7.9952 -7.2763,6.743 -7.0927,20.148 15.318,32.333 l 86.442,47.021 c -22.309,19.033 -45.321,40.422 -69.206,62.557 -2.7124,2.5136 -5.382,5.0458 -8.0217,7.5862 -9.2052,8.3618 -18.55,17.038 -28.09,25.878 -70.53,65.37 -110.46,143.38 -101.71,202.58 l 166.74,-154.52 c 18.711,-17.339 51.002,-12.732 68.341,5.978 l 5.4507,5.8818 c 17.339,18.71 19.479,51.258 0.7687,68.597 l -166.77,154.54 c 39.194,8.8811 86.756,-5.4304 137.27,-33.285 3.0864,-1.702 6.1717,-3.4408 9.2531,-5.2696 21.57,-12.802 42.954,-28.721 63.223,-47.503 9.5685,-8.8672 18.957,-17.551 28.02,-26.118 2.7057,-2.4156 5.4068,-4.858 8.0916,-7.3461 23.898,-22.146 46.98,-43.473 67.661,-64.279 l 40.29,89.79 c 10.447,23.272 23.8,24.473 31.076,17.73 7.2763,-6.743 5.6344,-18.796 -4.8131,-42.068 l -41.313,-92.046 c 60.028,-66.965 86.405,-129.62 21.475,-198.18 -0.71124,-0.78505 -1.4188,-1.5826 -2.1276,-2.3507 z m -8.9223,6.2851 c 1.0531,1.107 2.0912,2.2317 3.1436,3.3923 59.672,63.013 36.713,120.7 -17.486,182.13 l -7.8832,-17.561 c 5.677,-31.871 -4.9565,-65.456 -40.699,-103.34 -35.062,-38.516 -67.743,-51.666 -99.954,-48.432 l -16.911,-9.1945 c 64.194,-48.465 122.51,-67.193 179.79,-6.9903 z m -207.71,30.421 c -1.0139,0.52229 -2.0284,1.0534 -3.0432,1.5998 0.78279,-0.67026 1.5637,-1.3054 2.3447,-1.9694 l 0.69853,0.36968 z m 167.86,181.13 0.3409,0.75196 c -0.70334,0.70988 -1.4031,1.399 -2.1126,2.1102 0.6082,-0.94941 1.1866,-1.9118 1.7717,-2.8621 z"
           inkscape:connector-curvature="0"
           style="fill:#2b3990;fill-opacity:1"
           id="path3037" />
        <rect
           x="621.32001"
           y="185.08"
           width="92.092003"
           height="399.06"
           transform="matrix(0.67971018,0.73348079,-0.73348079,0.67971018,0,0)"
           rx="38.578999"
           style="fill:#2b3990;fill-opacity:1"
           ry="38.578999"
           id="rect3029" />
        <path
           id="rect3071"
           style="fill:#2b3990;fill-opacity:1"
           inkscape:connector-curvature="0"
           d="m 224.73141,327.64355 c -12.44021,-4.34849 -28.33288,5.48942 -33.14702,22.76344 l -14.11686,50.67908 c -4.81446,17.27367 -2.36111,28.58486 10.07945,32.93303 12.44021,4.34849 23.56445,-2.15913 30.03368,-18.91141 l 18.92604,-48.99786 c 6.46876,-16.75103 0.66374,-34.118 -11.77682,-38.46617 z m 41.16404,33.10132 c -11.57254,-3.75477 -25.29527,2.74444 -30.71215,15.89305 l -16.92608,41.02777 c -5.778,14.02496 -1.64541,25.02353 10.33902,30.50549 11.98444,5.48196 20.96806,0.42105 28.30469,-12.8421 l 21.51278,-38.89303 c 7.33671,-13.26306 1.77625,-29.32837 -10.20819,-34.81033 -0.749,-0.34264 -1.5403,-0.62323 -2.3118,-0.87355 z m -94.89976,-33.13985 c -0.76727,-0.26297 -1.54932,-0.48338 -2.35397,-0.65921 -12.87414,-2.81497 -26.97819,6.68788 -29.07778,21.69887 l -6.16761,44.03664 c -2.09975,15.01081 2.04395,24.41645 14.91867,27.23136 12.87413,2.81497 22.79073,-3.46639 26.59429,-18.15049 l 11.12303,-42.95794 c 3.56561,-13.76615 -3.529,-27.24988 -15.03666,-31.19821 z m 30.80722,112.70541 c -18.17013,-6.18535 -31.24383,-2.04337 -37.36331,10.4928 -6.31665,12.94149 -4.77318,24.12247 13.34377,33.41954 l 44.90419,23.05646 c 0,0 23.37877,-5.07065 27.39144,-23.23763 2.17078,-9.82966 -6.67907,-28.34183 -6.67907,-28.34183 l -39.82887,-14.74034 c -0.59675,-0.22105 -1.18192,-0.45124 -1.76808,-0.6507 z" />
        <path
           id="path3086"
           d="m 597.61084,730.01744 c 3.39072,12.73465 -7.62628,27.8339 -25.21614,31.32165 l -51.60518,10.22545 c -17.58954,3.4881 -28.68163,0.18242 -32.072,-12.55256 -3.39072,-12.73465 3.94331,-23.33228 21.1387,-28.50998 l 50.29422,-15.14847 c 17.19411,-5.17733 34.06981,1.93045 37.46018,14.66542 z m -29.878,-43.56008 c 2.86464,11.82438 -4.65844,25.01363 -18.18061,29.41582 l -42.19521,13.75987 c -14.42343,4.69567 -25.07622,-0.26064 -29.63175,-12.62695 -4.55554,-12.36631 1.17331,-20.93944 14.95556,-27.24712 l 40.42276,-18.49606 c 13.78217,-6.30778 29.37856,0.45725 33.93409,12.82356 0.28474,0.77287 0.5044,1.5832 0.69538,2.37149 z m 25.83359,97.14339 c 0.20391,0.78504 0.36427,1.58158 0.47845,2.39726 1.82866,13.0508 -8.71835,26.39206 -23.84547,27.34505 l -44.37796,2.80388 c -15.12696,0.95316 -24.19058,-3.8932 -26.01913,-16.94458 -1.82866,-13.0508 5.18801,-22.46148 20.11865,-25.13835 l 43.67889,-7.82693 c 13.99728,-2.50935 26.90299,5.58924 29.96555,17.36364 z m -110.03889,-39.2815 c 4.78691,18.58757 -0.33643,31.30876 -13.30133,36.45806 -13.38402,5.3151 -24.4154,2.92656 -32.30908,-15.84441 l -19.578,-46.52621 c 0,0 6.83232,-22.92593 25.25167,-25.54667 9.96618,-1.41766 27.75242,8.81317 27.75242,8.81317 l 11.67154,40.83371 c 0.17507,0.61181 0.36014,1.21279 0.51448,1.81241 z"
           style="fill:#2b3990;fill-opacity:1"
           inkscape:connector-curvature="0" />
        <g
           transform="matrix(0.81126,0.87543,-0.87543,0.81126,527.25,-184.15)"
           style="fill:#ffffff"
           id="text3102">
          <path
             d="m 382.13,511.53 c -4e-5,-8.2031 -0.77641,-13.975 -2.3291,-17.314 -1.5235,-3.3691 -4.1016,-5.0536 -7.7344,-5.0537 -3.6328,6e-5 -6.2256,1.6846 -7.7783,5.0537 -1.5528,3.3399 -2.3291,9.1114 -2.3291,17.314 -2e-5,8.291 0.77635,14.136 2.3291,17.534 1.5527,3.3984 4.1455,5.0977 7.7783,5.0976 3.6035,10e-6 6.1816,-1.6992 7.7344,-5.0976 1.5527,-3.3984 2.3291,-9.2431 2.3291,-17.534 m 16.919,0.13183 c -6e-5,10.869 -2.3438,19.263 -7.0312,25.181 -4.6876,5.8887 -11.338,8.833 -19.951,8.833 -8.6426,0 -15.308,-2.9443 -19.995,-8.833 -4.6875,-5.918 -7.0313,-14.312 -7.0312,-25.181 -10e-6,-10.898 2.3437,-19.292 7.0312,-25.181 4.6875,-5.9179 11.353,-8.8769 19.995,-8.877 8.6132,7e-5 15.264,2.959 19.951,8.877 4.6874,5.8887 7.0312,14.282 7.0312,25.181"
             inkscape:connector-curvature="0"
             style="fill:#ffffff"
             id="path3107" />
        </g>
      </g>
      <text
         sodipodi:linespacing="125%"
         id="text4208"
         y="351.44058"
         x="1004.863"
         style="font-style:italic;font-variant:normal;font-weight:bold;font-stretch:normal;font-size:28.79999924px;line-height:125%;font-family:'Lobster Two';-inkscape-font-specification:'Lobster Two, Bold Italic';text-align:start;letter-spacing:0px;word-spacing:0px;writing-mode:lr-tb;text-anchor:start;fill:#2b3990;fill-opacity:1;stroke:none;stroke-width:1px;stroke-linecap:butt;stroke-linejoin:miter;stroke-opacity:1"
         xml:space="preserve"><tspan
           style="font-style:italic;font-variant:normal;font-weight:bold;font-stretch:normal;font-size:45px;line-height:125%;font-family:'Lobster Two';-inkscape-font-specification:'Lobster Two, Bold Italic';text-align:start;writing-mode:lr-tb;text-anchor:start;fill:#2b3990;fill-opacity:1"
           y="351.44058"
           x="1004.863"
           id="tspan4210"
           sodipodi:role="line">Performance </tspan><tspan
           id="tspan4212"
           style="font-style:italic;font-variant:normal;font-weight:bold;font-stretch:normal;font-size:45px;line-height:125%;font-family:'Lobster Two';-inkscape-font-specification:'Lobster Two, Bold Italic';text-align:start;writing-mode:lr-tb;text-anchor:start;fill:#2b3990;fill-opacity:1"
           y="407.69058"
           x="1004.863"
           sodipodi:role="line">by Example</tspan></text>
    </g>
  </g>
  <metadata
     id="metadata21">
    <rdf:RDF>
      <cc:Work>
        <dc:format>image/svg+xml</dc:format>
        <dc:type
           rdf:resource="http://purl.org/dc/dcmitype/StillImage" />
        <cc:license
           rdf:resource="http://creativecommons.org/licenses/by/3.0/" />
        <dc:publisher>
          <cc:Agent
             rdf:about="http://openclipart.org/">
            <dc:title>Openclipart</dc:title>
          </cc:Agent>
        </dc:publisher>
        <dc:title>Performance by Example</dc:title>
        <dc:creator>
          <cc:Agent>
            <dc:title>Peter Steinbach</dc:title>
          </cc:Agent>
        </dc:creator>
        <dc:description>Adapted from https://openclipart.org/detail/189342/twin-racers</dc:description>
      </cc:Work>
      <cc:License
         rdf:about="http://creativecommons.org/licenses/by/3.0/">
        <cc:permits
           rdf:resource="http://creativecommons.org/ns#Reproduction" />
        <cc:permits
           rdf:resource="http://creativecommons.org/ns#Distribution" />
        <cc:requires
           rdf:resource="http://creativecommons.org/ns#Notice" />
        <cc:requires
           rdf:resource="http://creativecommons.org/ns#Attribution" />
        <cc:permits
           rdf:resource="http://creativecommons.org/ns#DerivativeWorks" />
      </cc:License>
    </rdf:RDF>
  </metadata>
</svg>
